<svg class='icon' width="33" height="18" viewBox="0 0 33 18" fill="#565656" xmlns="http://www.w3.org/2000/svg">
        <path d="M10.9639 17H13.791V16.7656C13.6152 16.3262 13.4785 15.8135 13.3809 15.2275C13.2832 14.6318 13.2344 14.0703 13.2344 13.543V6.1748C13.2344 5.28613 13.0732 4.50977 12.751 3.8457C12.4287 3.18164 11.9893 2.625 11.4326 2.17578C10.8662 1.73633 10.1973 1.40918 9.42578 1.19434C8.6543 0.969727 7.81934 0.857422 6.9209 0.857422C5.93457 0.857422 5.05078 0.994141 4.26953 1.26758C3.49805 1.54102 2.84375 1.89746 2.30664 2.33691C1.75977 2.78613 1.33984 3.28906 1.04688 3.8457C0.763672 4.40234 0.617188 4.96875 0.607422 5.54492H3.33203C3.33203 5.21289 3.41016 4.89551 3.56641 4.59277C3.73242 4.28027 3.96191 4.01172 4.25488 3.78711C4.54785 3.5625 4.9043 3.38184 5.32422 3.24512C5.75391 3.1084 6.2373 3.04004 6.77441 3.04004C7.35059 3.04004 7.86816 3.11328 8.32715 3.25977C8.7959 3.40625 9.19141 3.61133 9.51367 3.875C9.83594 4.14844 10.085 4.47559 10.2607 4.85645C10.4365 5.2373 10.5244 5.66699 10.5244 6.14551V7.39062H7.56543C6.46191 7.39062 5.46094 7.49805 4.5625 7.71289C3.67383 7.92773 2.91211 8.25 2.27734 8.67969C1.64258 9.11914 1.14941 9.66602 0.797852 10.3203C0.456055 10.9746 0.285156 11.7363 0.285156 12.6055C0.285156 13.2695 0.412109 13.8896 0.666016 14.4658C0.929688 15.0322 1.30078 15.5205 1.7793 15.9307C2.24805 16.3506 2.81934 16.6826 3.49316 16.9268C4.17676 17.1709 4.93848 17.293 5.77832 17.293C6.2959 17.293 6.78418 17.2393 7.24316 17.1318C7.70215 17.0244 8.13672 16.8779 8.54688 16.6924C8.94727 16.5068 9.31348 16.292 9.64551 16.0479C9.9873 15.8037 10.2949 15.5449 10.5684 15.2715C10.5977 15.6035 10.6416 15.9258 10.7002 16.2383C10.7686 16.541 10.8564 16.7949 10.9639 17ZM6.17383 14.9346C5.64648 14.9346 5.18262 14.8662 4.78223 14.7295C4.38184 14.5928 4.0498 14.4023 3.78613 14.1582C3.52246 13.9238 3.32227 13.6406 3.18555 13.3086C3.05859 12.9766 2.99512 12.6152 2.99512 12.2246C2.99512 11.8145 3.06836 11.4482 3.21484 11.126C3.37109 10.8037 3.5957 10.5254 3.88867 10.291C4.29883 9.95898 4.85059 9.71484 5.54395 9.55859C6.24707 9.39258 7.06738 9.30957 8.00488 9.30957H10.5244V12.5176C10.3682 12.8301 10.1533 13.1328 9.87988 13.4258C9.60645 13.709 9.28418 13.9629 8.91309 14.1875C8.53223 14.4121 8.1123 14.5928 7.65332 14.7295C7.19434 14.8662 6.70117 14.9346 6.17383 14.9346ZM23.9717 17H26.0371L32.4971 1.15039H29.7285L25.29 13.1035L25.0264 14.085L24.7773 13.1035L20.2363 1.15039H17.4531L23.9717 17Z"/>
        </svg>