<svg width="36" height="36" viewBox="0 0 36 36" fill="none" xmlns="http://www.w3.org/2000/svg">
<path fill-rule="evenodd" clip-rule="evenodd" d="M6 1C6 0.734784 6.10536 0.48043 6.29289 0.292893C6.48043 0.105357 6.73478 0 7 0H29C29.2652 0 29.5196 0.105357 29.7071 0.292893C29.8946 0.48043 30 0.734784 30 1V2H35C35.2652 2 35.5196 2.10536 35.7071 2.29289C35.8946 2.48043 36 2.73478 36 3V9C36 10.3261 35.4732 11.5979 34.5355 12.5355C33.5979 13.4732 32.3261 14 31 14H29.317C28.6022 16.0171 27.3618 17.8068 25.7238 19.184C24.0859 20.5612 22.1099 21.4761 20 21.834V28H26C26.2652 28 26.5196 28.1054 26.7071 28.2929C26.8946 28.4804 27 28.7348 27 29V35C27 35.2652 26.8946 35.5196 26.7071 35.7071C26.5196 35.8946 26.2652 36 26 36H10C9.73478 36 9.48043 35.8946 9.29289 35.7071C9.10536 35.5196 9 35.2652 9 35V29C9 28.7348 9.10536 28.4804 9.29289 28.2929C9.48043 28.1054 9.73478 28 10 28H16V21.834C13.8901 21.4761 11.9141 20.5612 10.2762 19.184C8.63823 17.8068 7.39777 16.0171 6.683 14H5C3.67392 14 2.40215 13.4732 1.46447 12.5355C0.526784 11.5979 0 10.3261 0 9V3C0 2.73478 0.105357 2.48043 0.292893 2.29289C0.48043 2.10536 0.734784 2 1 2H6V1ZM30 10V4H34V9C34 9.79565 33.6839 10.5587 33.1213 11.1213C32.5587 11.6839 31.7956 12 31 12H30V10ZM6 4H2V9C2 9.79565 2.31607 10.5587 2.87868 11.1213C3.44129 11.6839 4.20435 12 5 12H6V4Z" fill="#EDFFE9"/>
</svg>
