<svg width="24" height="24" viewBox="0 0 24 24" fill="none" xmlns="http://www.w3.org/2000/svg">
    <path d="M17.9576 10.5347C17.9576 13.7756 15.3303 16.4028 12.0894 16.4028C8.84857 16.4028 6.22131 13.7756 6.22131 10.5347C6.22131 9.62149 6.43597 8.76055 6.80779 7.99011H0.326721V21.7129C0.326721 22.9708 1.35593 24 2.61385 24H21.5644C22.8223 24 23.8515 22.9708 23.8515 21.7129V7.99011H17.3707C17.7562 8.78305 17.9568 9.65306 17.9576 10.5347V10.5347Z" fill="#edffe9"/>
    <path d="M21.5644 0.14856H2.61385C1.35593 0.14856 0.326721 1.17777 0.326721 2.43569V7.00995H7.40539C8.47642 5.58899 10.1728 4.66662 12.0891 4.66662C14.0054 4.66662 15.7018 5.58899 16.7728 7.00995H23.8515V2.43569C23.8515 1.17777 22.8223 0.14856 21.5644 0.14856ZM2.2074 5.93696H1.35593V2.63859C1.3559 2.36484 1.43673 2.09719 1.58827 1.86921C1.73981 1.64123 1.95531 1.46309 2.20772 1.35714V5.93696H2.2074ZM3.60254 5.93696H2.79584V1.249H3.60254V5.93696ZM4.99737 5.93696H4.19066V1.249H4.99737V5.93696ZM6.39121 2.63859V5.93696H5.58549V1.249H6.39121V2.63859V2.63859ZM22.6592 4.54736C22.6593 4.7298 22.6234 4.91047 22.5536 5.07904C22.4838 5.24761 22.3815 5.40078 22.2526 5.52982C22.1236 5.65886 21.9705 5.76122 21.8019 5.83108C21.6334 5.90094 21.4527 5.93692 21.2703 5.93696H19.0129C18.8304 5.93696 18.6497 5.90101 18.4812 5.83118C18.3126 5.76134 18.1594 5.65898 18.0304 5.52994C17.9014 5.4009 17.7991 5.24771 17.7293 5.07911C17.6595 4.91052 17.6236 4.72983 17.6236 4.54736V2.63859C17.6236 2.45612 17.6595 2.27543 17.7293 2.10684C17.7991 1.93825 17.9014 1.78506 18.0304 1.65602C18.1594 1.52698 18.3126 1.42462 18.4812 1.35478C18.6497 1.28494 18.8304 1.249 19.0129 1.249H21.2703C21.4527 1.249 21.6334 1.28494 21.802 1.35479C21.9705 1.42463 22.1237 1.52699 22.2527 1.65604C22.3816 1.78508 22.4839 1.93828 22.5537 2.10687C22.6235 2.27545 22.6593 2.45614 22.6592 2.63859V4.54736Z" fill="#edffe9"/>
    <path d="M12.0894 15.7168C14.9438 15.7168 17.2577 13.4019 17.2577 10.5482C17.2577 7.69417 14.9441 5.37927 12.0894 5.37927C9.23445 5.37927 6.92053 7.69417 6.92053 10.5482C6.92053 13.4015 9.23445 15.7168 12.0894 15.7168V15.7168ZM12.0891 6.43004C14.3632 6.43004 16.2073 8.2738 16.2073 10.5482C16.2073 12.8222 14.3635 14.6663 12.0891 14.6663C9.81473 14.6663 7.97098 12.8226 7.97098 10.5482C7.97131 8.27347 9.81506 6.43004 12.0891 6.43004Z" fill="#edffe9"/>
    </svg>