<svg width="24" height="24" viewBox="0 0 24 24" fill="none" xmlns="http://www.w3.org/2000/svg">
      <path d="M21.8639 0H1.98762C1.46066 0.000591842 0.955439 0.210192 0.582816 0.582816C0.210192 0.955439 0.000591842 1.46066 0 1.98762V21.8639C0.000591842 22.3908 0.210192 22.8961 0.582816 23.2687C0.955439 23.6413 1.46066 23.8509 1.98762 23.8515H21.8639C22.3908 23.8509 22.8961 23.6413 23.2687 23.2687C23.6413 22.8961 23.8509 22.3908 23.8515 21.8639V1.98762C23.8509 1.46066 23.6413 0.955439 23.2687 0.582816C22.8961 0.210192 22.3908 0.000591842 21.8639 0ZM7.9505 17.8886C7.9505 18.1522 7.84579 18.405 7.65942 18.5914C7.47304 18.7777 7.22026 18.8824 6.95669 18.8824C6.69311 18.8824 6.44033 18.7777 6.25396 18.5914C6.06758 18.405 5.96287 18.1522 5.96287 17.8886V9.93812C5.96287 9.67455 6.06758 9.42177 6.25396 9.23539C6.44033 9.04902 6.69311 8.94431 6.95669 8.94431C7.22026 8.94431 7.47304 9.04902 7.65942 9.23539C7.84579 9.42177 7.9505 9.67455 7.9505 9.93812V17.8886ZM6.95669 7.45359C6.66185 7.45359 6.37364 7.36616 6.12849 7.20236C5.88334 7.03856 5.69227 6.80574 5.57944 6.53335C5.46661 6.26095 5.43709 5.96122 5.49461 5.67205C5.55213 5.38288 5.69411 5.11726 5.90259 4.90878C6.11107 4.7003 6.37669 4.55832 6.66586 4.5008C6.95503 4.44328 7.25477 4.4728 7.52716 4.58563C7.79955 4.69846 8.03237 4.88953 8.19617 5.13468C8.35998 5.37982 8.44741 5.66804 8.44741 5.96287C8.44741 6.35824 8.29035 6.73741 8.01078 7.01697C7.73122 7.29654 7.35205 7.45359 6.95669 7.45359V7.45359ZM18.8824 17.8886C18.8824 18.1522 18.7777 18.405 18.5914 18.5914C18.405 18.7777 18.1522 18.8824 17.8886 18.8824C17.625 18.8824 17.3723 18.7777 17.1859 18.5914C16.9995 18.405 16.8948 18.1522 16.8948 17.8886V13.4165C16.8948 12.7575 16.633 12.1256 16.1671 11.6596C15.7012 11.1937 15.0692 10.9319 14.4103 10.9319C13.7513 10.9319 13.1194 11.1937 12.6535 11.6596C12.1875 12.1256 11.9257 12.7575 11.9257 13.4165V17.8886C11.9257 18.1522 11.821 18.405 11.6347 18.5914C11.4483 18.7777 11.1955 18.8824 10.9319 18.8824C10.6684 18.8824 10.4156 18.7777 10.2292 18.5914C10.0428 18.405 9.93812 18.1522 9.93812 17.8886V9.93812C9.93797 9.69378 10.0279 9.45795 10.1906 9.27571C10.3534 9.09348 10.5776 8.97762 10.8204 8.95029C11.0632 8.92295 11.3076 8.98606 11.5068 9.12755C11.706 9.26904 11.8461 9.47899 11.9003 9.71725C12.5724 9.2605 13.3563 8.99562 14.1677 8.95108C14.9791 8.90654 15.7872 9.08404 16.5053 9.46449C17.2233 9.84493 17.8241 10.4139 18.2429 11.1103C18.6618 11.8066 18.8829 12.604 18.8824 13.4166V17.8886Z" fill="#edffe9"/>
      </svg>