<svg width="121" height="120" viewBox="0 0 121 120" fill="none" xmlns="http://www.w3.org/2000/svg">
<path d="M121 59.9373C121 58.5495 120.317 57.3295 119.279 56.5643L119.301 56.5267L104.671 48.0856L113.092 33.5086L113.064 33.4914C113.33 32.8906 113.45 32.2356 113.416 31.5796C113.381 30.9235 113.192 30.2849 112.864 29.7154C112.534 29.1464 112.074 28.6633 111.522 28.3053C110.97 27.9473 110.341 27.7245 109.687 27.6549V27.6141H92.791V10.7775H92.7565C92.6862 10.1243 92.4628 9.49686 92.1046 8.94599C91.7464 8.39513 91.2634 7.93634 90.6947 7.60682C90.124 7.27827 89.4836 7.08925 88.8259 7.05518C88.1682 7.02112 87.5117 7.14298 86.9101 7.41081L86.8897 7.37475L72.0132 15.9585L63.7755 1.69825L63.7457 1.7155C63.3578 1.18506 62.8505 0.753339 62.2647 0.455304C61.6789 0.157268 61.031 0.00129106 60.3737 0C58.985 0 57.7627 0.68212 56.9986 1.7202L56.9609 1.69825L48.5867 16.1937L34.1668 7.8734L34.1496 7.9032C33.5484 7.63737 32.893 7.51686 32.2366 7.55146C31.5801 7.58606 30.941 7.77479 30.3712 8.10234C29.8015 8.43204 29.3178 8.89145 28.9592 9.44322C28.6007 9.99499 28.3775 10.6235 28.3079 11.2777H28.2655V28.0156H11.6144V28.0485C10.9608 28.1188 10.3329 28.3419 9.78169 28.6999C9.23048 29.0579 8.7714 29.5406 8.44168 30.109C8.11378 30.679 7.92499 31.3183 7.89064 31.9749C7.85629 32.6315 7.97734 33.287 8.24397 33.8881L8.20788 33.91L16.4393 48.1593L1.69932 56.6647L1.71658 56.6945C1.1858 57.082 0.753817 57.5891 0.455593 58.1745C0.157369 58.7599 0.00129188 59.4074 0 60.0643C0 61.4521 0.682552 62.6736 1.72129 63.4373L1.69932 63.4749L16.3295 71.9159L7.90819 86.493L7.93643 86.5086C7.67043 87.1094 7.54986 87.7644 7.58448 88.4204C7.6191 89.0765 7.80795 89.7151 8.13571 90.2846C8.46589 90.8536 8.9257 91.3367 9.47779 91.6947C10.0299 92.0527 10.6587 92.2755 11.3131 92.3451V92.3874H28.2074V109.222H28.242C28.3863 110.502 29.1034 111.7 30.3037 112.393C30.8746 112.721 31.5149 112.91 32.1726 112.944C32.8302 112.978 33.4867 112.857 34.0884 112.589L34.1088 112.625L48.9853 104.041L57.223 118.302L57.2528 118.285C57.6406 118.815 58.1479 119.247 58.7338 119.545C59.3196 119.843 59.9674 119.999 60.6247 120C62.0134 120 63.2357 119.318 63.9998 118.281L64.0359 118.302L72.4101 103.806L86.8316 112.127L86.8489 112.097C87.45 112.363 88.1054 112.483 88.7619 112.449C89.4183 112.414 90.0574 112.225 90.6272 111.898C91.1969 111.568 91.6807 111.109 92.0392 110.557C92.3977 110.005 92.6209 109.376 92.6906 108.722H92.7329V91.986H109.386V91.9531C110.039 91.8828 110.667 91.6596 111.218 91.3016C111.77 90.9437 112.229 90.4609 112.558 89.8926C112.886 89.3222 113.075 88.6827 113.109 88.0259C113.144 87.369 113.023 86.7133 112.756 86.1119L112.792 86.0915L104.561 71.8422L119.301 63.3369L119.283 63.3071C119.814 62.9197 120.247 62.4127 120.545 61.8272C120.843 61.2418 120.999 60.5943 121 59.9373V59.9373ZM50.6375 77.8057L35.1883 70.9845L42.006 82.7844L38.1523 85.008L27.6991 66.9169L31.661 64.629L46.6144 71.1554L40.0478 59.7899L43.903 57.5663L54.3531 75.6574L50.6375 77.8057V77.8057ZM57.9369 73.5938L47.4852 55.5011L60.2968 48.1107L62.255 51.5009L53.2971 56.6678L55.4907 60.4657L64.2572 55.4086L66.2154 58.7957L57.4489 63.8559L59.8308 67.9785L68.7887 62.8116L70.7469 66.2018L57.9369 73.5938V73.5938ZM87.602 56.4781L77.2492 45.8871L81.277 60.1255L77.1802 62.4901L61.5442 47.391L65.8592 44.9008L76.5886 56.1409L72.4823 41.0794L75.495 39.3419L86.4676 50.4425L82.0898 35.5362L86.4048 33.046L91.7005 54.1149L87.602 56.4781Z" fill="#EDFFE9"/>
</svg>
