<svg width="33" height="33" viewBox="0 0 33 33" fill="none" xmlns="http://www.w3.org/2000/svg">
<path d="M16.5 0C7.4019 0 0 7.4019 0 16.5C0 25.5981 7.4019 33 16.5 33C25.5981 33 33 25.5981 33 16.5C33 7.4019 25.5981 0 16.5 0ZM3.3 16.5C3.3 15.0166 3.5574 13.5927 4.01115 12.2611L6.6 14.85L9.9 18.15V21.45L13.2 24.75L14.85 26.4V29.5861C8.35065 28.7694 3.3 23.2188 3.3 16.5ZM26.9445 24.5404C25.867 23.6725 24.2335 23.1 23.1 23.1V21.45C23.1 20.5748 22.7523 19.7354 22.1335 19.1165C21.5146 18.4977 20.6752 18.15 19.8 18.15H13.2V13.2C14.0752 13.2 14.9146 12.8523 15.5335 12.2335C16.1523 11.6146 16.5 10.7752 16.5 9.9V8.25H18.15C19.0252 8.25 19.8646 7.90232 20.4835 7.28345C21.1023 6.66458 21.45 5.82521 21.45 4.95V4.27185C26.2812 6.2337 29.7 10.9725 29.7 16.5C29.6997 19.4118 28.7302 22.2406 26.9445 24.5404V24.5404Z" fill="#EDFFE9"/>
</svg>
